<svg width="60" height="60" viewBox="0 0 60 60" fill="none" xmlns="http://www.w3.org/2000/svg">
<rect width="60" height="60" fill="#68B738"/>
<ellipse cx="34.9542" cy="24.3299" rx="1.0873" ry="1.08512" fill="white"/>
<ellipse cx="24.0811" cy="24.3299" rx="1.08731" ry="1.08512" fill="white"/>
<ellipse cx="24.0811" cy="37.3512" rx="1.08731" ry="1.08512" fill="white"/>
<ellipse cx="29.5177" cy="39.5215" rx="1.0873" ry="1.08512" fill="white"/>
<ellipse cx="20.8192" cy="30.7748" rx="1.08731" ry="1.08512" fill="white"/>
<ellipse cx="38.2161" cy="30.7748" rx="1.0873" ry="1.08512" fill="white"/>
<ellipse cx="34.9542" cy="37.3512" rx="1.0873" ry="1.08512" fill="white"/>
<mask id="path-9-inside-1_95_39" fill="white">
<path fill-rule="evenodd" clip-rule="evenodd" d="M34.6715 42.0581C35.0798 41.8622 35.5726 41.9298 35.8885 42.2542L37.7144 44.1292C37.9819 44.4039 38.4234 44.4039 38.691 44.1292C38.9487 43.8645 38.9487 43.4427 38.691 43.1781L37.3343 41.7849C36.9084 41.3475 36.9728 40.6356 37.432 40.2333C40.0738 37.9195 41.75 34.4688 41.75 30.6145C41.75 23.6477 36.2735 18 29.5178 18C22.7622 18 17.2856 23.6477 17.2856 30.6145C17.2856 34.4288 18.9273 37.8477 21.5217 40.1608C21.9744 40.5644 22.0349 41.2708 21.6117 41.7054L20.1776 43.1781C19.9198 43.4427 19.9198 43.8645 20.1776 44.1291C20.4451 44.4039 20.8866 44.4039 21.1542 44.1292L23.0338 42.199C23.3525 41.8718 23.8504 41.8061 24.2602 42.0076C25.853 42.7907 27.6358 43.229 29.5178 43.229C31.359 43.229 33.1053 42.8095 34.6715 42.0581ZM29.5178 41.8274C35.5228 41.8274 40.3909 36.8072 40.3909 30.6145C40.3909 24.4218 35.5228 19.4016 29.5178 19.4016C23.5128 19.4016 18.6448 24.4218 18.6448 30.6145C18.6448 36.8072 23.5128 41.8274 29.5178 41.8274ZM28.7583 30.298V26.5001V22.9409C28.7583 22.5094 29.1081 22.1596 29.5395 22.1596C29.971 22.1596 30.3208 22.5094 30.3208 22.9409V26.5001V30.298V30.8406V31.1226C30.3208 31.5661 29.9613 31.9257 29.5177 31.9257C29.0983 31.9257 28.7583 31.5857 28.7583 31.1663V30.8406V30.298Z"/>
</mask>
<path fill-rule="evenodd" clip-rule="evenodd" d="M34.6715 42.0581C35.0798 41.8622 35.5726 41.9298 35.8885 42.2542L37.7144 44.1292C37.9819 44.4039 38.4234 44.4039 38.691 44.1292C38.9487 43.8645 38.9487 43.4427 38.691 43.1781L37.3343 41.7849C36.9084 41.3475 36.9728 40.6356 37.432 40.2333C40.0738 37.9195 41.75 34.4688 41.75 30.6145C41.75 23.6477 36.2735 18 29.5178 18C22.7622 18 17.2856 23.6477 17.2856 30.6145C17.2856 34.4288 18.9273 37.8477 21.5217 40.1608C21.9744 40.5644 22.0349 41.2708 21.6117 41.7054L20.1776 43.1781C19.9198 43.4427 19.9198 43.8645 20.1776 44.1291C20.4451 44.4039 20.8866 44.4039 21.1542 44.1292L23.0338 42.199C23.3525 41.8718 23.8504 41.8061 24.2602 42.0076C25.853 42.7907 27.6358 43.229 29.5178 43.229C31.359 43.229 33.1053 42.8095 34.6715 42.0581ZM29.5178 41.8274C35.5228 41.8274 40.3909 36.8072 40.3909 30.6145C40.3909 24.4218 35.5228 19.4016 29.5178 19.4016C23.5128 19.4016 18.6448 24.4218 18.6448 30.6145C18.6448 36.8072 23.5128 41.8274 29.5178 41.8274ZM28.7583 30.298V26.5001V22.9409C28.7583 22.5094 29.1081 22.1596 29.5395 22.1596C29.971 22.1596 30.3208 22.5094 30.3208 22.9409V26.5001V30.298V30.8406V31.1226C30.3208 31.5661 29.9613 31.9257 29.5177 31.9257C29.0983 31.9257 28.7583 31.5857 28.7583 31.1663V30.8406V30.298Z" fill="white"/>
<path d="M23.0338 42.199L25.8995 44.9896L23.0338 42.199ZM24.2602 42.0076L26.025 38.418L24.2602 42.0076ZM21.1542 44.1292L18.2885 41.3385L21.1542 44.1292ZM20.1776 43.1781L23.0432 45.9687L20.1776 43.1781ZM37.3343 41.7849L34.4686 44.5756L37.3343 41.7849ZM37.432 40.2333L34.7965 37.2243L37.432 40.2333ZM21.5217 40.1608L18.8597 43.1464L21.5217 40.1608ZM21.6117 41.7054L18.7461 38.9147L21.6117 41.7054ZM38.691 43.1781L41.5567 40.3874L38.691 43.1781ZM37.7144 44.1292L40.5801 41.3385L37.7144 44.1292ZM35.8885 42.2542L33.0228 45.0449L35.8885 42.2542ZM34.6715 42.0581L32.9413 38.4516L34.6715 42.0581ZM33.0228 45.0449L34.8487 46.9198L40.5801 41.3385L38.7542 39.4636L33.0228 45.0449ZM41.5567 40.3874L40.2 38.9942L34.4686 44.5756L35.8253 45.9688L41.5567 40.3874ZM40.0675 43.2423C43.5575 40.1855 45.75 35.6466 45.75 30.6145H37.75C37.75 33.2911 36.5901 35.6534 34.7965 37.2243L40.0675 43.2423ZM45.75 30.6145C45.75 21.5555 38.5978 14 29.5178 14V22C33.9492 22 37.75 25.7399 37.75 30.6145H45.75ZM29.5178 14C20.4379 14 13.2856 21.5555 13.2856 30.6145H21.2856C21.2856 25.7399 25.0865 22 29.5178 22V14ZM13.2856 30.6145C13.2856 35.5943 15.433 40.0912 18.8597 43.1464L24.1836 37.1752C22.4216 35.6042 21.2856 33.2633 21.2856 30.6145H13.2856ZM18.7461 38.9147L17.3119 40.3874L23.0432 45.9687L24.4774 44.496L18.7461 38.9147ZM24.0199 46.9198L25.8995 44.9896L20.1681 39.4083L18.2885 41.3385L24.0199 46.9198ZM22.4954 45.5972C24.6222 46.6429 27.0073 47.229 29.5178 47.229V39.229C28.2643 39.229 27.0837 38.9385 26.025 38.418L22.4954 45.5972ZM29.5178 47.229C31.9736 47.229 34.3098 46.6681 36.4017 45.6645L32.9413 38.4516C31.9008 38.9508 30.7444 39.229 29.5178 39.229V47.229ZM29.5178 45.8274C37.8471 45.8274 44.3909 38.8994 44.3909 30.6145H36.3909C36.3909 34.715 33.1985 37.8274 29.5178 37.8274V45.8274ZM44.3909 30.6145C44.3909 22.3296 37.8471 15.4016 29.5178 15.4016V23.4016C33.1985 23.4016 36.3909 26.514 36.3909 30.6145H44.3909ZM29.5178 15.4016C21.1885 15.4016 14.6448 22.3296 14.6448 30.6145H22.6448C22.6448 26.514 25.8371 23.4016 29.5178 23.4016V15.4016ZM14.6448 30.6145C14.6448 38.8994 21.1885 45.8274 29.5178 45.8274V37.8274C25.8371 37.8274 22.6448 34.715 22.6448 30.6145H14.6448ZM26.3208 30.298V30.8406H34.3208V30.298H26.3208ZM26.3208 30.8406V31.1226H34.3208V30.8406H26.3208ZM32.7583 31.1663V30.8406H24.7583V31.1663H32.7583ZM32.7583 30.8406V30.298H24.7583V30.8406H32.7583ZM32.7583 30.298V26.5001H24.7583V30.298H32.7583ZM32.7583 26.5001V22.9409H24.7583V26.5001H32.7583ZM26.3208 22.9409V26.5001H34.3208V22.9409H26.3208ZM26.3208 26.5001V30.298H34.3208V26.5001H26.3208ZM29.5395 18.1596C26.8989 18.1596 24.7583 20.3003 24.7583 22.9409H32.7583C32.7583 24.7186 31.3172 26.1596 29.5395 26.1596V18.1596ZM26.3208 31.1226C26.3208 29.357 27.7521 27.9257 29.5177 27.9257V35.9257C32.1704 35.9257 34.3208 33.7753 34.3208 31.1226H26.3208ZM25.8995 44.9896C24.9069 46.009 23.5021 46.0922 22.4954 45.5972L26.025 38.418C24.1987 37.52 21.798 37.7346 20.1681 39.4083L25.8995 44.9896ZM17.3119 46.9198C19.1497 48.807 22.1821 48.807 24.0199 46.9198L18.2885 41.3385C19.5912 40.0008 21.7406 40.0008 23.0433 41.3385L17.3119 46.9198ZM17.3119 40.3874C15.5417 42.2051 15.5417 45.1021 17.3119 46.9198L23.0433 41.3385C24.298 42.6269 24.2979 44.6803 23.0432 45.9687L17.3119 40.3874ZM40.2 38.9942C41.5427 40.3731 41.144 42.2994 40.0675 43.2423L34.7965 37.2243C32.8015 38.9717 32.274 42.3219 34.4686 44.5756L40.2 38.9942ZM29.5395 26.1596C27.7619 26.1596 26.3208 24.7186 26.3208 22.9409H34.3208C34.3208 20.3003 32.1802 18.1596 29.5395 18.1596V26.1596ZM18.8597 43.1464C17.7963 42.1983 17.4126 40.2839 18.7461 38.9147L24.4774 44.496C26.6571 42.2577 26.1525 38.9306 24.1836 37.1752L18.8597 43.1464ZM41.5567 46.9198C43.3268 45.1021 43.3268 42.2051 41.5567 40.3874L35.8253 45.9688C34.5706 44.6803 34.5706 42.6269 35.8253 41.3385L41.5567 46.9198ZM34.8487 46.9198C36.6865 48.807 39.7189 48.807 41.5567 46.9198L35.8253 41.3385C37.128 40.0008 39.2774 40.0008 40.5801 41.3385L34.8487 46.9198ZM29.5177 27.9257C31.3074 27.9257 32.7583 29.3765 32.7583 31.1663H24.7583C24.7583 33.7948 26.8891 35.9257 29.5177 35.9257V27.9257ZM38.7542 39.4636C37.1381 37.804 34.7617 37.5783 32.9413 38.4516L36.4017 45.6645C35.398 46.1461 34.007 46.0555 33.0228 45.0449L38.7542 39.4636Z" fill="white" mask="url(#path-9-inside-1_95_39)"/>
<rect x="28.75" y="19" width="4" height="1.5" transform="rotate(-90 28.75 19)" fill="white"/>
<rect x="21.75" y="15" width="15.5" height="1.5" rx="0.75" fill="white"/>
</svg>
