<svg style="display:none">
  <symbol id="catalog-arrow" width="24" height="12" viewBox="0 0 24 12" xmlns="http://www.w3.org/2000/svg"><path stroke="#000" stroke-width="2" d="M0 6h18"/><path d="m24 6-6.75 5.2V.8L24 6Z"/>
  </symbol>
  <symbol id="vkontakte" viewBox="0 0 28 22" width="28" height="22" xmlns="http://www.w3.org/2000/svg"><path d="M1 5.34c0-.86.52-1.32 1.55-1.38l3.97.02c.26 0 .44.13.53.38.4 1.26.86 2.34 1.37 3.25.5.92 1.17 1.97 1.99 3.16.07.15.18.23.34.23.13 0 .22-.06.3-.18l.07-.28.03-4.35c0-.3-.07-.5-.23-.6-.15-.1-.43-.18-.83-.23-.32-.05-.48-.23-.48-.55 0-.07 0-.12.02-.15.38-1.09 1.44-1.63 3.2-1.63l1.5-.03c.67 0 1.23.16 1.67.48.44.32.67.82.67 1.5v5.72c.12.08.24.12.34.12.27 0 .5-.15.7-.45 1.95-2.58 3-4.31 3.17-5.18 0-.02.01-.06.05-.13.12-.25.33-.47.61-.65.29-.19.53-.31.75-.38a.55.55 0 0 1 .24-.05h4.13l.26.03c.36 0 .63.16.83.47.07.1.12.21.15.33a2.4 2.4 0 0 1 .06.55v.18a6.11 6.11 0 0 1-.94 2.2c-.5.78-1.15 1.62-1.93 2.53-.79.9-1.27 1.5-1.47 1.78-.16.2-.24.39-.24.56 0 .13.07.28.21.45l3.9 4.63c.2.26.31.56.31.88 0 .38-.16.7-.48.95-.32.25-.7.4-1.14.43l-.46.02h-4.04c-.02 0-.06 0-.11.02a.86.86 0 0 1-.1.01c-.4 0-.76-.16-1.1-.48-.12-.13-.96-1.12-2.5-2.97a1.39 1.39 0 0 0-.38-.32 38.47 38.47 0 0 0-.53 2.24l-.08.42a1.4 1.4 0 0 1-1.12 1.06l-.37.02h-2.61c-1.48 0-2.95-.63-4.41-1.9a19.3 19.3 0 0 1-3.96-4.95 47.51 47.51 0 0 1-3.28-7.05A1.92 1.92 0 0 1 1 5.34Zm16.01 6.51c-.37 0-.7-.1-1.01-.29a.9.9 0 0 1-.45-.79V5c0-.34-.1-.58-.27-.72-.18-.14-.49-.21-.93-.21l-1.52.05c-.76 0-1.34.12-1.73.37.78.36 1.17.93 1.17 1.71v4.43a1.5 1.5 0 0 1-.53 1.04c-.32.28-.68.42-1.07.42-.53 0-.94-.24-1.22-.73a26.16 26.16 0 0 1-3.1-5.63l-.23-.66-3.55-.02c-.23 0-.36.01-.38.03-.03.03-.04.1-.04.22 0 .15.01.3.05.48l.56 1.4c1.49 3.64 3.11 6.51 4.86 8.6 1.75 2.1 3.47 3.15 5.16 3.15h2.66c.1 0 .19-.03.24-.09.05-.06.1-.17.13-.34l.06-.25.5-2.21c.15-.3.27-.5.38-.6.2-.2.42-.28.69-.28.43 0 .86.24 1.3.73l2.27 2.71c.14.22.3.33.45.33h4.4c.53 0 .8-.13.8-.38a.47.47 0 0 0-.08-.25l-3.87-4.55c-.3-.35-.45-.73-.45-1.13 0-.4.14-.8.43-1.16.23-.34.68-.9 1.34-1.67.67-.78 1.25-1.51 1.75-2.19.5-.68.82-1.3.98-1.85l.08-.33a.37.37 0 0 1-.02-.16c0-.07-.01-.14-.03-.19h-4.18c-.27.1-.48.25-.64.45L21.8 6c-.45 1.16-1.6 2.94-3.5 5.36-.36.33-.8.5-1.3.5Z"/>
  </symbol>
  <symbol id="youtube" width="28" height="22" viewBox="0 0 28 22" xmlns="http://www.w3.org/2000/svg"><path d="m17.85 10.8-5.24-3.5a.65.65 0 0 0-1.01.55v6.98a.65.65 0 0 0 1.01.54l5.24-3.49a.65.65 0 0 0 0-1.09Zm-4.94 2.8V9.08l3.4 2.27-3.4 2.27Zm12.48-8.56a2.4 2.4 0 0 0-1.45-1.63C20.22 1.98 14.25 2 14 2s-6.22-.02-9.94 1.4a2.4 2.4 0 0 0-1.45 1.64 25.32 25.32 0 0 0-.61 6.3c0 3.26.33 5.22.61 6.3a2.4 2.4 0 0 0 1.45 1.63c3.72 1.43 9.69 1.4 9.94 1.4h.08c.75 0 6.31-.04 9.86-1.4a2.4 2.4 0 0 0 1.45-1.64c.28-1.07.61-3.03.61-6.3 0-3.25-.33-5.22-.61-6.29Zm-1.27 12.27a1.1 1.1 0 0 1-.65.74c-3.5 1.34-9.4 1.32-9.47 1.32-.07 0-5.98.02-9.47-1.32a1.09 1.09 0 0 1-.65-.74c-.27-1-.57-2.85-.57-5.97 0-3.12.3-4.97.57-5.97a1.1 1.1 0 0 1 .65-.74C8.03 3.29 13.93 3.3 14 3.3c.07 0 5.98-.02 9.47 1.32a1.1 1.1 0 0 1 .65.74c.27 1 .57 2.85.57 5.97 0 3.12-.3 4.96-.57 5.97Z"/>
  </symbol>
  <symbol id="telegram" width="28" height="22" viewBox="0 0 28 22" xmlns="http://www.w3.org/2000/svg"><path fill-rule="evenodd" clip-rule="evenodd" d="M23.46 3.15c.18.15.27.38.23.61l-2.63 15.76a.66.66 0 0 1-1.01.44l-7.88-5.25a.66.66 0 0 1-.15-.96l2.61-3.26-4.36 2.9a.66.66 0 0 1-.65.05L4.36 10.8a.66.66 0 0 1 .08-1.2l18.38-6.57a.66.66 0 0 1 .64.11ZM6.33 10.32l3.53 1.77 7.56-5.04a.66.66 0 0 1 .88.96l-4.8 6 6.43 4.3 2.28-13.66-15.88 5.67Z"/>
  </symbol>
  <symbol id="htmlacademy" width="27" height="34" viewBox="0 0 27 34" xmlns="http://www.w3.org/2000/svg"><path d="M13.64.02 13.5 0 0 1.4v24.61L13.5 34 27 26.01V1.41L13.64 0Zm11.6 25L13.5 31.96 1.77 25.02v-10.1l11.68 6.93.02 1.25-8.02-4.75v1.23l8.04 4.8.02 1.3-8.05-4.76v1.22l8.04 4.81 8.12-4.83V16.9l3.62-2.15v10.26Zm0-11.57L22 15.33l-1.48.88-7.06-4.19-.01 1.23 6.04 3.57-.06.03-.13.07-.86.5-4.98-2.95-.01 1.22 3.93 2.33-.93.61-.02.01-2.97-1.74-.01 1.23 1.94 1.13-1.98 1.19L1.8 13.58l11.63-6.96 11.8 6.83Zm0-1.22L13.43 5.3 1.77 12.22V2.99L13.5 1.76 25.23 3v9.24Z"/>
  </symbol>
  <symbol id="letter" width="19" height="14" viewBox="0 0 19 14" xmlns="http://www.w3.org/2000/svg">
    <line x1="1.1793" y1="6" x2="1.1793" y2="14" stroke="#222222" stroke-width="1.3"/>
    <line x1="18.1793" y1="6" x2="18.1793" y2="14" stroke="#222222" stroke-width="1.3"/>
    <line x1="0.529297" y1="13.35" x2="18.5293" y2="13.35" stroke="#222222" stroke-width="1.3"/>
    <line x1="0.529297" y1="1.35" x2="18.5293" y2="1.35" stroke="#222222" stroke-width="1.3"/>
    <path d="M17.8793 3.1821L9.52932 9.67654L1.1793 3.18209V1.65H4.0293L9.52932 1.65H14.5293H17.8793V3.1821Z" stroke="#222222" stroke-width="1.3"/>
  </symbol>
  <symbol id="phone" width="20" height="20" viewBox="0 0 20 20" xmlns="http://www.w3.org/2000/svg">
    <path d="M17.9 9.4H9.40002V10.6H17.9L15.8 12.7L16.7 13.6L19.8 10.5C19.8974 10.3702 19.95 10.2123 19.95 10.05C19.95 9.88772 19.8974 9.72982 19.8 9.6L16.7 6.5L15.8 7.4L17.9 9.4Z"/>
    <path d="M8.10764 19.4017V13.2017C8.09609 13.0464 8.02917 12.9004 7.91905 12.7903C7.80894 12.6802 7.66294 12.6133 7.50764 12.6017H3.10764C3.11279 12.9184 3.24088 13.2206 3.46481 13.4446C3.68875 13.6685 3.99099 13.7966 4.30764 13.8017H6.80764V18.8017H3.10764C2.87089 18.8166 2.63354 18.7842 2.40939 18.7065C2.18525 18.6289 1.97878 18.5074 1.80199 18.3492C1.6252 18.191 1.48162 17.9993 1.37958 17.7851C1.27755 17.571 1.21911 17.3387 1.20764 17.1017V3.10172C1.19944 2.639 1.37279 2.19148 1.69055 1.85502C2.00832 1.51857 2.44521 1.31995 2.90764 1.30172H6.80764V6.30172H4.40764C4.09099 6.30687 3.78875 6.43495 3.56481 6.65889C3.34088 6.88283 3.21279 7.18507 3.20764 7.50172H7.60764C7.76294 7.49017 7.90894 7.42325 8.01905 7.31313C8.12917 7.20301 8.19609 7.05702 8.20764 6.90172V0.601721C8.15995 0.445581 8.0688 0.306243 7.94484 0.199994C7.82088 0.0937442 7.66924 0.0249739 7.50764 0.00172136H3.10764C2.71362 -0.0116318 2.32084 0.0528092 1.95174 0.19136C1.58264 0.329911 1.24447 0.539854 0.956562 0.809186C0.668656 1.07852 0.436659 1.40196 0.273837 1.76101C0.111014 2.12006 0.0205594 2.50769 0.00764403 2.90172V16.8017C-0.021335 17.1994 0.0322798 17.5987 0.165117 17.9746C0.297953 18.3506 0.507138 18.6949 0.779516 18.9861C1.05189 19.2773 1.38157 19.5089 1.74782 19.6665C2.11406 19.8241 2.50895 19.9042 2.90764 19.9017H7.50764C7.58113 19.9167 7.65706 19.915 7.72979 19.8967C7.80253 19.8784 7.87022 19.844 7.92784 19.796C7.98546 19.7479 8.03154 19.6876 8.06266 19.6193C8.09379 19.5511 8.10916 19.4767 8.10764 19.4017Z"/>
  </symbol>
</svg>
